<svg width="238" height="462" viewBox="0 0 238 462" fill="none" xmlns="http://www.w3.org/2000/svg">
<path d="M0 22L238 0V459L0 451.5V22Z" fill="#8A5D3C"/>
<path d="M0 22L238 1V83.5L0 99V22Z" fill="#553936" fill-opacity="0.6"/>
<path d="M230.75 247.75V301.25H214.25V247.75H230.75Z" fill="#C39746" stroke="black" stroke-width="0.5"/>
<circle cx="222" cy="264.5" r="5.5" fill="#D9A952" stroke="black"/>
<path d="M222 280.567C222.589 280.567 223.067 280.089 223.067 279.5C223.067 278.911 222.589 278.433 222 278.433C221.411 278.433 220.933 278.911 220.933 279.5C220.933 280.089 221.411 280.567 222 280.567ZM222 284.5H222.2V279.5H222H221.8V284.5H222Z" fill="black"/>
<path d="M225 84.1923L238 83V462L225 460.878V84.1923Z" fill="#553936" fill-opacity="0.6"/>
<path d="M103.5 126.018L24.5 128.98V52.9639L103.5 47.0391V126.018Z" stroke="black"/>
<path d="M91.2197 113.266L36.7803 116.733V65.2363L91.2197 62.2637V113.266Z" stroke="black" stroke-width="0.5"/>
<path d="M207.5 122.017L125.5 124.98V44.959L207.5 38.043V122.017Z" stroke="black"/>
<path d="M194.75 109.758L138.25 111.74V59.7324L194.75 55.7676V109.758Z" stroke="black" stroke-width="0.5"/>
<path d="M103.5 292.5V409.971L24.5 405.527V292.5H103.5Z" stroke="black"/>
<path d="M90.75 311.25V392.733L37.25 389.266V311.25H90.75Z" stroke="black" stroke-width="0.5"/>
<path d="M207.5 292.5V415.478L125.5 412.02V292.5H207.5Z" stroke="black"/>
<path d="M194.75 311.25V396.735L138.25 393.762V311.25H194.75Z" stroke="black" stroke-width="0.5"/>
<path d="M104 258H24.5V153.981L104 151.019V258Z" stroke="black"/>
<path d="M90.75 241.25H37.25V169.653L90.75 167.261V241.25Z" stroke="black" stroke-width="0.5"/>
<path d="M207.5 258H125.5V150.982L207.5 148.019V258Z" stroke="black"/>
<path d="M194.75 241.701H138.25V164.741L194.75 162.759V241.701Z" stroke="black" stroke-width="0.5"/>
<circle cx="114" cy="133" r="2.6" fill="#6A4738" stroke="black" stroke-width="0.8"/>
<circle cx="114" cy="133" r="1.25" fill="#6A4738" stroke="black" stroke-width="0.5"/>
<path d="M227.814 454.076C227.814 453.485 227.918 444.754 228.157 431.299C228.294 426.269 228.46 424.892 228.551 421.281C228.643 417.67 228.655 411.868 228.667 405.89" stroke="#6A4738" stroke-width="0.5" stroke-linecap="round"/>
<path d="M216.992 458.902C216.678 458.046 216.039 454.001 216.653 448.496C217.035 444.875 217.264 441.614 217.36 438.703C217.427 437.461 217.531 436.697 217.638 434.702" stroke="black" stroke-width="0.5" stroke-linecap="round"/>
<path d="M220.277 457.174C220.277 456.758 220.277 454.893 220.511 451.231C220.744 449.221 221.211 446.901 221.473 445.366C221.734 443.831 221.776 443.15 221.819 442.448" stroke="black" stroke-width="0.5" stroke-linecap="round"/>
<path d="M219.139 446.946C219.139 444.994 219.6 439.6 220.442 436.571C220.635 435.665 220.811 434.486 220.902 433.531C220.993 432.575 220.993 431.88 220.993 431.163" stroke="black" stroke-width="0.5" stroke-linecap="round"/>
<path d="M225.031 400.317C225.031 402.867 225.506 410.97 226.226 421.12C226.709 427.929 226.471 438.158 226.441 443.725C226.168 451.104 225.733 453.435 225.417 455.535C225.294 456.469 225.249 457.137 225.202 457.824" stroke="black" stroke-width="0.5" stroke-linecap="round"/>
<path d="M228.563 409.895C228.563 409.813 228.563 407.909 228.675 404.692C229.01 402.545 229.321 401.029 229.442 398.583C229.484 396.839 229.484 394.071 229.403 390.921" stroke="black" stroke-width="0.5" stroke-linecap="round"/>
<path d="M13.1127 22.384C13.1127 22.4467 13.1127 23.7201 12.9662 26.7372C12.5266 30.7863 11.7613 34.3719 10.9828 38.319C10.6676 41.0224 10.5148 45.1479 10.3574 49.3984" stroke="black" stroke-width="0.5" stroke-linecap="round"/>
<path d="M14.3688 27.9136C14.3688 28.0363 14.3262 32.9063 13.9936 41.026C13.7037 44.3388 13.1676 46.012 12.8702 48.4546C12.5728 50.8971 12.5302 54.0582 12.4863 57.3151" stroke="black" stroke-width="0.5" stroke-linecap="round"/>
<path d="M8.14853 31.7893C8.14853 31.7155 8.13741 30.336 8.05858 27.7829C7.99088 26.5714 7.86695 25.5304 7.76492 24.6992C7.66289 23.868 7.58651 23.2782 7.50781 22.3042" stroke="black" stroke-width="0.5" stroke-linecap="round"/>
<path d="M225.346 11.1162C225.346 11.1678 225.346 14.6953 224.986 23.4021C224.771 28.616 223.907 35.413 223.554 40.4086C223.237 48.3839 223.371 52.3332 223.555 55.0201C223.642 56.8279 223.715 59.5376 223.85 62.8691" stroke="black" stroke-width="0.5" stroke-linecap="round"/>
<path d="M221.215 3.88574C221.215 3.93633 221.204 8.51792 221.015 16.3722C220.108 25.7532 220.382 31.6556 220.892 33.9794C221.072 34.901 221.092 35.2996 221.112 35.7103" stroke="black" stroke-width="0.5" stroke-linecap="round"/>
<path d="M222.381 27.2323C222.381 27.2151 222.381 27.1979 222.381 26.3724C222.381 25.5468 222.381 23.9135 222.424 22.8126C222.468 21.7117 222.555 21.1927 222.645 20.4648" stroke="black" stroke-width="0.5" stroke-linecap="round"/>
<path d="M160.55 106.314C160.551 101.282 160.669 90.6202 161.511 87.3901C161.704 86.5659 161.786 85.9154 161.847 83.8546C161.909 81.7938 161.948 78.3425 161.871 73.9712" stroke="black" stroke-width="0.5" stroke-linecap="round"/>
<path d="M19.3157 452.582C19.3157 448.655 21.2758 425.341 21.9872 407.044C19.766 396.295 17.9042 385.735 17.2088 381.277C16.9324 377.876 16.8113 372.159 16.6865 366.27" stroke="black" stroke-width="0.5" stroke-linecap="round"/>
<path d="M14.5818 399.674C14.5818 402.012 14.5818 404.35 14.373 408.619C14.1641 412.888 13.7464 419.017 13.2277 423.543C12.7091 428.068 12.1023 430.805 11.4546 435.246" stroke="black" stroke-width="0.5" stroke-linecap="round"/>
<path d="M18.1586 410.13C18.1586 410.17 18.1586 410.209 18.1586 414.502C18.1586 418.794 18.1586 427.338 18.0592 433.395C17.9597 439.452 17.7607 442.763 17.5557 446.174" stroke="black" stroke-width="0.5" stroke-linecap="round"/>
<path d="M11.7877 398.468C11.7877 398.437 11.7877 398.406 11.7877 395.625C11.7877 392.843 11.7877 387.312 11.2671 379.232" stroke="black" stroke-width="0.5" stroke-linecap="round"/>
<path d="M72.7299 390.55C72.7299 389.962 72.7299 386.406 72.4129 378.433C72.0959 373.713 71.4618 367.625 71.1352 360.14C70.8086 352.655 70.8086 343.958 70.8086 334.997" stroke="black" stroke-width="0.5" stroke-linecap="round"/>
<path d="M65.7979 388.962C65.7979 387.389 67.0362 381.818 68.2786 371.531C68.4702 369.192 68.6408 367.919 68.7317 366.393C68.8227 364.868 68.8289 363.129 68.8352 361.338" stroke="black" stroke-width="0.5" stroke-linecap="round"/>
<path d="M75.3478 342.409C75.3478 342.439 75.3478 342.469 75.3478 343.66C75.3478 344.852 75.3478 347.205 75.1816 350.698C75.0153 354.191 74.6829 358.751 74.3403 363.45" stroke="black" stroke-width="0.5" stroke-linecap="round"/>
<path d="M73.6289 322.095V337.065" stroke="black" stroke-width="0.5" stroke-linecap="round"/>
<path d="M145.777 389.464C145.777 386.93 146.709 378.773 151.209 368.68C152.109 366.496 152.303 365.352 152.427 363.317C152.551 361.282 152.6 358.391 152.649 355.413" stroke="black" stroke-width="0.5" stroke-linecap="round"/>
<path d="M147.743 350.708C147.743 350.77 147.743 354.086 147.597 359.687C147.451 362.004 147.16 363.255 146.89 364.365C146.621 365.475 146.382 366.407 146.136 367.367" stroke="black" stroke-width="0.5" stroke-linecap="round"/>
<path d="M55.4121 77.1538C55.4121 77.2749 55.4405 80.5062 55.6875 85.7927C55.9061 87.9103 56.314 88.8805 56.5241 91.1019C56.7342 93.3234 56.7342 96.7666 56.7342 100.314" stroke="black" stroke-width="0.5" stroke-linecap="round"/>
<path d="M57.8353 72.2178C57.8353 72.2487 57.8353 72.2796 57.8353 72.9647C57.8353 73.6499 57.8353 74.9884 57.7858 76.9021C57.7364 78.8158 57.6375 81.2642 57.5356 83.7868" stroke="black" stroke-width="0.5" stroke-linecap="round"/>
<path d="M60.2773 88.5432V105.565" stroke="black" stroke-width="0.5" stroke-linecap="round"/>
</svg>
