<svg width="93" height="115" viewBox="0 0 93 115" fill="none" xmlns="http://www.w3.org/2000/svg">
<path d="M13.3583 7L91.8198 13.2342L87.7814 63.6782L80.2814 95.4604L72.2044 114L1.81982 102.071L15.0891 75.3317L18.5506 62.0891V47.0028L17.3967 26.599L13.3583 7Z" fill="#C7BF9B"/>
<path d="M13.0698 6L91.8198 12.3842C91.8198 75.801 78.5976 106.552 71.9865 114L0.819824 101.764C13.8865 80.9084 17.9309 62.5714 18.3198 56.0098C18.3198 25.7911 14.8198 10.7882 13.0698 7.06404" stroke="black"/>
<path d="M25.5498 32.8287C26.0074 32.9691 27.9991 33.3166 30.6161 32.9286C33.8392 32.4507 35.7662 28.653 37.5028 26.7595C38.1208 26.0857 38.5447 26.328 39.3236 27.8178C40.1025 29.3076 41.3104 32.1228 42.1282 33.5558C42.9461 34.9889 43.3372 34.9544 44.0735 34.7426C45.9038 34.2161 47.6901 33.579 49.712 33.315C55.2727 32.5888 56.9266 33.7646 59.3757 35.0937C60.3701 35.4147 61.327 35.4617 62.3158 35.4044C62.7653 35.3624 63.1089 35.294 63.5751 35.2236" stroke="black" stroke-width="2" stroke-linecap="round"/>
<path d="M31.9756 51.4561C32.0222 51.4561 34.6203 51.4561 39.0848 51.4011C40.9759 51.3779 42.1042 51.2363 44.1788 50.6027C49.3162 49.0335 52.7416 47.5648 53.5506 47.4715C54.2587 47.3899 54.8922 47.4756 55.458 47.6237C56.9192 48.006 57.6357 49.7655 58.0669 50.2484C58.2647 50.47 58.5436 50.5245 58.8047 50.4846C60.1035 50.2858 62.2317 49.5341 63.9102 50.0435C66.2047 51.6903 68.7521 51.7505 71.9093 51.8441C73.0207 51.9378 73.1356 52.125 73.3423 52.3899" stroke="black" stroke-width="2" stroke-linecap="round"/>
<path d="M23.2705 67.2808C23.2909 67.2808 23.5744 67.3319 26.2781 67.4376C28.7075 67.5326 33.289 67.5487 35.9906 67.5389C40.4621 67.5228 42.0629 66.9535 45.7169 66.9852C48.1206 67.006 49.5569 69.2098 50.5678 70.9824C51.2534 72.1846 51.5561 73.1648 52.2542 73.4676C55.8016 73.9335 59.6642 73.8841 60.1702 73.7254C60.4511 73.6207 60.781 73.4667 61.4858 72.9991" stroke="black" stroke-width="2" stroke-linecap="round"/>
<path d="M43.8921 85.2817C44.2211 85.2687 45.3018 85.0921 47.3708 84.3464C49.0419 83.7441 50.8804 84.0986 51.5928 84.3738C53.7101 85.1918 53.8222 89.0974 54.5411 89.1707C57.5851 89.481 62.2836 88.0735 64.2275 88.1811C64.7486 88.3207 65.2463 88.3947 65.7493 88.3647C65.9994 88.3381 66.2391 88.2884 66.4861 88.2372" stroke="black" stroke-width="2" stroke-linecap="round"/>
<path d="M50.0557 98.6191C50.0848 98.6191 50.4032 98.6222 51.0326 98.6546C51.6985 98.7393 53.3454 99.2926 55.4472 100.12C56.2521 100.452 56.5257 100.604 57.3617 100.9" stroke="black" stroke-width="2" stroke-linecap="round"/>
<path d="M49.106 0.5C51.2464 0.5 53.2263 1.67958 54.689 3.66992C56.1514 5.65996 57.0708 8.43324 57.0708 11.5186C57.0708 14.604 56.1515 17.3781 54.689 19.3682C53.2263 21.3583 51.2463 22.5371 49.106 22.5371C46.9656 22.5371 44.9856 21.3584 43.5229 19.3682C42.0605 17.3781 41.1411 14.604 41.1411 11.5186C41.1412 8.43332 42.0606 5.65995 43.5229 3.66992C44.9856 1.67963 46.9656 0.500059 49.106 0.5Z" fill="#898778" stroke="black"/>
<path d="M46.2847 0.5C48.4251 0.5 50.405 1.67958 51.8677 3.66992C53.3301 5.65996 54.2495 8.43324 54.2495 11.5186C54.2495 14.604 53.3302 17.3781 51.8677 19.3682C50.405 21.3583 48.425 22.5371 46.2847 22.5371C44.1443 22.5371 42.1643 21.3584 40.7017 19.3682C39.2392 17.3781 38.3198 14.604 38.3198 11.5186C38.3199 8.43332 39.2393 5.65995 40.7017 3.66992C42.1643 1.67963 44.1443 0.500059 46.2847 0.5Z" fill="#898778" stroke="black"/>
</svg>
